# xmcd CD database file
#
# Track frame offsets:
#	150
#	17337
#	36777
#	51872
#	72907
#	89020
#	103590
#	120297
#	139185
#	154652
#	172915
#
# Disc length: 2509 seconds
#
# Revision: 0
# Processed by: cddbd v1.4PL0 Copyright (c) Steve Scherf et al.
# Submitted via: CDex 1.50beta9
#
DISCID=8509cb0b
DTITLE=Ray Bonneville - Solid Ground
DYEAR=1996
DGENRE=Blues
TTITLE0=Nothing to lose
TTITLE1=Blue Guitar
TTITLE2=If your love is strong
TTITLE3=Love in danger
TTITLE4=When the night time comes
TTITLE5=Blonde of mine
TTITLE6=What else is new
TTITLE7=When will I learn
TTITLE8=Solid Ground
TTITLE9=Excuse me
TTITLE10=Say those things
EXTD=YEAR: 1996
EXTT0=
EXTT1=
EXTT2=
EXTT3=
EXTT4=
EXTT5=
EXTT6=
EXTT7=
EXTT8=
EXTT9=
EXTT10=
PLAYORDER=
